<svg xmlns="http://www.w3.org/2000/svg" width="1467.701" height="1467.701">
    <defs>
        <style>
            .cls-2{fill:#23224e;opacity:.08;stroke:#707070}.cls-4{stroke:none}.cls-5{fill:none}
        </style>
    </defs>
    <g id="Group_7223" data-name="Group 7223" transform="translate(-752.669 -406.649)" style="opacity:.47">
        <g id="Ellipse_1448" data-name="Ellipse 1448" class="cls-2" transform="translate(968.383 622.363)">
            <circle class="cls-4" cx="518.137" cy="518.137" r="518.137"/>
            <circle class="cls-5" cx="518.137" cy="518.137" r="517.637"/>
        </g>
        <g id="Ellipse_1449" data-name="Ellipse 1449" class="cls-2" transform="translate(858.411 512.392)">
            <circle class="cls-4" cx="628.108" cy="628.108" r="628.108"/>
            <circle class="cls-5" cx="628.108" cy="628.108" r="627.608"/>
        </g>
        <g id="Path_54532" data-name="Path 54532" style="fill:#23224e;opacity:.08">
            <path class="cls-4" d="M733.85 1467.201a745.101 745.101 0 0 1-74.98-3.786 735.17 735.17 0 0 1-72.816-11.113 731.081 731.081 0 0 1-70.28-18.07 730.979 730.979 0 0 1-67.377-24.661 733.231 733.231 0 0 1-64.105-30.88 736.321 736.321 0 0 1-60.464-36.734 739.071 739.071 0 0 1-56.456-42.217 740.664 740.664 0 0 1-52.079-47.332 740.66 740.66 0 0 1-47.331-52.079 739.09 739.09 0 0 1-42.218-56.455 736.307 736.307 0 0 1-36.733-60.465 733.221 733.221 0 0 1-30.88-64.105 730.968 730.968 0 0 1-24.661-67.377 731.087 731.087 0 0 1-18.07-70.28 735.204 735.204 0 0 1-11.114-72.815A745.127 745.127 0 0 1 .5 733.851c0-25.016 1.274-50.243 3.786-74.982A735.204 735.204 0 0 1 15.4 586.054a731.087 731.087 0 0 1 18.07-70.28 730.969 730.969 0 0 1 24.661-67.377 733.22 733.22 0 0 1 30.881-64.105 736.281 736.281 0 0 1 36.733-60.464 739.084 739.084 0 0 1 42.218-56.456 740.666 740.666 0 0 1 47.331-52.079 740.666 740.666 0 0 1 52.079-47.331 739.084 739.084 0 0 1 56.456-42.218 736.281 736.281 0 0 1 60.464-36.733 733.22 733.22 0 0 1 64.105-30.88 730.969 730.969 0 0 1 67.377-24.661 731.087 731.087 0 0 1 70.28-18.07A735.204 735.204 0 0 1 658.87 4.285 745.127 745.127 0 0 1 733.851.5c25.015 0 50.242 1.274 74.981 3.786A735.204 735.204 0 0 1 881.647 15.4a731.087 731.087 0 0 1 70.28 18.07 730.968 730.968 0 0 1 67.377 24.661 733.221 733.221 0 0 1 64.105 30.881 736.307 736.307 0 0 1 60.465 36.733 739.09 739.09 0 0 1 56.455 42.218 740.66 740.66 0 0 1 52.079 47.331 740.664 740.664 0 0 1 47.332 52.079 739.071 739.071 0 0 1 42.217 56.456 736.321 736.321 0 0 1 36.733 60.464 733.231 733.231 0 0 1 30.88 64.105 730.979 730.979 0 0 1 24.661 67.377 731.081 731.081 0 0 1 18.071 70.28 735.17 735.17 0 0 1 11.113 72.815 745.101 745.101 0 0 1 3.786 74.982c0 20.91-.89 42.022-2.647 62.748a737.026 737.026 0 0 1-7.798 61.281 732.124 732.124 0 0 1-12.735 59.599 730.621 730.621 0 0 1-17.457 57.701 731.336 731.336 0 0 1-21.965 55.59 733.528 733.528 0 0 1-26.26 53.265 736.12 736.12 0 0 1-30.34 50.725 738.607 738.607 0 0 1-34.204 47.97 740.344 740.344 0 0 1-37.856 45 741.13 741.13 0 0 1-41.293 41.818 740.67 740.67 0 0 1-44.516 38.419 739.278 739.278 0 0 1-47.524 34.806 737.06 737.06 0 0 1-50.318 30.978 734.578 734.578 0 0 1-52.898 26.937 732.512 732.512 0 0 1-55.263 22.68 731.655 731.655 0 0 1-57.414 18.21 728.174 728.174 0 0 1-46.595 11.042 733.431 733.431 0 0 1-47.76 8.026 739.982 739.982 0 0 1-48.798 4.898 747.999 747.999 0 0 1-49.71 1.657z" transform="translate(752.669 406.649)"/>
            <path d="M733.85 1a744.637 744.637 0 0 0-74.93 3.784 734.748 734.748 0 0 0-72.765 11.105 730.63 730.63 0 0 0-70.232 18.058 730.546 730.546 0 0 0-67.33 24.644 732.693 732.693 0 0 0-64.062 30.86 735.814 735.814 0 0 0-60.423 36.708 738.56 738.56 0 0 0-56.418 42.188 740.172 740.172 0 0 0-52.043 47.3 740.172 740.172 0 0 0-47.3 52.043 738.56 738.56 0 0 0-42.188 56.418A735.814 735.814 0 0 0 89.45 384.53a732.693 732.693 0 0 0-30.86 64.061 730.546 730.546 0 0 0-24.644 67.33 730.63 730.63 0 0 0-18.058 70.233A734.748 734.748 0 0 0 4.784 658.92 744.637 744.637 0 0 0 1 733.85c0 25 1.273 50.21 3.784 74.931a734.756 734.756 0 0 0 11.105 72.766 730.626 730.626 0 0 0 18.058 70.231 730.53 730.53 0 0 0 24.644 67.33 732.725 732.725 0 0 0 30.86 64.062 735.753 735.753 0 0 0 36.708 60.424 738.537 738.537 0 0 0 42.188 56.417 740.145 740.145 0 0 0 47.3 52.043 740.262 740.262 0 0 0 52.043 47.3 738.56 738.56 0 0 0 56.418 42.188 735.814 735.814 0 0 0 60.423 36.709 732.693 732.693 0 0 0 64.061 30.86 730.546 730.546 0 0 0 67.33 24.643 730.63 730.63 0 0 0 70.233 18.058 734.748 734.748 0 0 0 72.765 11.105 744.637 744.637 0 0 0 124.606 2.128 739.477 739.477 0 0 0 48.765-4.895 733.11 733.11 0 0 0 47.728-8.02 727.507 727.507 0 0 0 46.562-11.035 731.166 731.166 0 0 0 57.375-18.197 731.967 731.967 0 0 0 55.226-22.665 734.027 734.027 0 0 0 52.861-26.918 736.624 736.624 0 0 0 50.284-30.957 738.814 738.814 0 0 0 47.492-34.783 740.244 740.244 0 0 0 44.485-38.392 740.494 740.494 0 0 0 41.265-41.79 739.805 739.805 0 0 0 37.83-44.97 738.083 738.083 0 0 0 34.182-47.937 735.641 735.641 0 0 0 30.319-50.69 732.822 732.822 0 0 0 26.241-53.228 730.737 730.737 0 0 0 21.95-55.552 730.052 730.052 0 0 0 17.446-57.662 731.638 731.638 0 0 0 12.726-59.558 736.542 736.542 0 0 0 7.793-61.239 745.77 745.77 0 0 0 2.645-62.706c0-24.999-1.273-50.21-3.784-74.931a734.748 734.748 0 0 0-11.105-72.765 730.63 730.63 0 0 0-18.058-70.232 730.546 730.546 0 0 0-24.643-67.33 732.693 732.693 0 0 0-30.86-64.062 735.814 735.814 0 0 0-36.709-60.423 738.56 738.56 0 0 0-42.188-56.418 740.262 740.262 0 0 0-47.3-52.043 740.145 740.145 0 0 0-52.043-47.3 738.537 738.537 0 0 0-56.417-42.188 735.753 735.753 0 0 0-60.424-36.708 732.725 732.725 0 0 0-64.061-30.86 730.53 730.53 0 0 0-67.33-24.644 730.626 730.626 0 0 0-70.232-18.058A734.756 734.756 0 0 0 808.78 4.784 744.637 744.637 0 0 0 733.851 1m0-1c405.294 0 733.85 328.556 733.85 733.85 0 338.421-229.077 623.338-540.857 708.21-61.335 16.696-126.12 25.641-192.993 25.641C328.556 1467.701 0 1139.145 0 733.851 0 328.556 328.556 0 733.85 0z" style="fill:#707070;stroke:none" transform="translate(752.669 406.649)"/>
        </g>
    </g>
</svg>
