<svg xmlns="http://www.w3.org/2000/svg" width="19.923" height="25.602">
    <g data-name="Group 7112">
        <path data-name="Path 54403" d="M19.59 18.973c-1.07-4.538-4.467-7.635-8.538-7.727v-5.3c0-.245-.163-.46-.349-.46a.319.319 0 0 0-.209.092L.142 15.447a.545.545 0 0 0-.07.644l.07.092 10.352 9.812a.306.306 0 0 0 .489-.092.607.607 0 0 0 .07-.276v-5.274a5.558 5.558 0 0 1 5.374 3.925 6.389 6.389 0 0 1-1.373 6.01.548.548 0 0 0-.023.644.342.342 0 0 0 .256.153h.279a.232.232 0 0 0 .186-.092 12.187 12.187 0 0 0 3.838-12.02z" transform="translate(0 -5.482)" style="fill:#d5da43"/>
    </g>
</svg>
