<svg xmlns="http://www.w3.org/2000/svg" width="21.671" height="21.725" viewBox="0 0 21.671 21.725">
    <g data-name="Group 7123">
        <ellipse data-name="Ellipse 1448" cx="10.835" cy="10.862" rx="10.835" ry="10.862" style="fill:#23224e"/>
        <path data-name="Icon awesome-tags" d="M9.293 4.217 5.339.262A.9.9 0 0 0 4.705 0H.9a.9.9 0 0 0-.9.9v3.81a.9.9 0 0 0 .262.633l3.955 3.95a.9.9 0 0 0 1.267 0l3.81-3.81a.9.9 0 0 0 0-1.267zM2.09 2.986a.9.9 0 1 1 .9-.9.9.9 0 0 1-.9.9zm9.592 2.5-3.81 3.81a.9.9 0 0 1-1.267 0L6.6 9.287l3.248-3.249a1.68 1.68 0 0 0 0-2.376L6.185 0h.909a.9.9 0 0 1 .633.262l3.955 3.955a.9.9 0 0 1 0 1.267z" transform="translate(5.365 6.437)" style="fill:#fff"/>
    </g>
</svg>
