<svg xmlns="http://www.w3.org/2000/svg" width="11.367" height="12.991">
    <path data-name="Icon awesome-copy" d="M8.119 11.367v1.015a.609.609 0 0 1-.609.609H.609A.609.609 0 0 1 0 12.382V3.045a.609.609 0 0 1 .609-.609h1.827v7.51a1.422 1.422 0 0 0 1.421 1.421zm0-8.728V0H3.857a.609.609 0 0 0-.609.609v9.337a.609.609 0 0 0 .609.609h6.9a.609.609 0 0 0 .609-.609v-6.7H8.728a.611.611 0 0 1-.609-.607zm3.069-.787L9.516.178A.609.609 0 0 0 9.085 0h-.154v2.436h2.436v-.154a.609.609 0 0 0-.178-.431z" style="fill:#d5da43"/>
</svg>
