<svg width="136" height="140" viewBox="0 0 136 140" fill="none" xmlns="http://www.w3.org/2000/svg">
<g clip-path="url(#clip0_1217:16821)">
<path d="M56.531 54.545H62.56C61.2 52.864 62.24 51.204 62.549 49.589C63.317 45.577 64.227 41.589 65.081 37.597C66.9084 29.0483 68.7367 20.4996 70.566 11.951C70.613 11.6428 70.7242 11.3478 70.8923 11.0853C71.0603 10.8227 71.2816 10.5982 71.5418 10.4264C71.8019 10.2547 72.0952 10.1394 72.4027 10.0879C72.7102 10.0365 73.0251 10.0502 73.327 10.128C83.2717 12.2533 93.2167 14.3791 103.162 16.5051C109.37 17.8304 115.579 19.1514 121.789 20.4681C123.589 20.8511 124.204 21.7891 123.815 23.6251C123.095 27.0191 122.343 30.405 121.621 33.798C120.192 40.5054 118.771 47.2143 117.356 53.925C117.328 54.1352 117.314 54.347 117.313 54.559H122.103C123.401 54.523 124.692 54.7529 125.898 55.2347C127.104 55.7165 128.198 56.4399 129.114 57.3604C130.029 58.281 130.747 59.3792 131.222 60.5875C131.697 61.7957 131.92 63.0884 131.877 64.386C131.877 71.803 131.884 79.221 131.862 86.639C131.839 86.8834 131.891 87.129 132.011 87.3433C132.131 87.5576 132.313 87.7305 132.533 87.839C133.342 88.3099 134.01 88.9878 134.47 89.803C134.93 90.6182 135.164 91.5413 135.148 92.477C135.155 95.444 135.148 98.411 135.162 101.377C135.2 102.407 134.951 103.428 134.444 104.326C133.936 105.223 133.189 105.962 132.287 106.461C132.167 106.562 132.07 106.687 132.002 106.829C131.934 106.97 131.898 107.124 131.894 107.281C131.873 114.753 131.868 122.225 131.877 129.697C131.919 130.995 131.697 132.288 131.223 133.497C130.748 134.706 130.033 135.805 129.12 136.728C128.206 137.652 127.114 138.379 125.911 138.866C124.707 139.353 123.416 139.589 122.118 139.561C105.318 139.58 88.5157 139.582 71.711 139.569C55.049 139.569 38.387 139.569 21.725 139.569C19.8544 139.654 18.0004 139.184 16.3972 138.216C14.7939 137.249 13.5133 135.828 12.717 134.133C12.0786 132.878 11.7556 131.487 11.776 130.079C11.7833 118.049 11.7833 106.019 11.776 93.988C11.776 84.0626 11.7777 74.137 11.781 64.211C11.7364 61.9237 12.521 59.6977 13.9898 57.9438C15.4586 56.1899 17.5124 55.0267 19.772 54.669C20.3859 54.5821 21.0063 54.5487 21.626 54.569C24.754 54.559 27.882 54.569 30.99 54.569C27.397 46.356 28.69 39.354 36.4 34.293C38.9686 32.7034 41.9745 31.968 44.9868 32.1922C47.9991 32.4164 50.8631 33.5887 53.168 35.5411C55.9315 37.7583 57.7851 40.9128 58.377 44.4061C59.0134 47.8978 58.3572 51.5016 56.531 54.545ZM129.392 86.9C129.415 86.8292 129.431 86.7567 129.441 86.683C129.441 79.159 129.488 71.6331 129.431 64.1091C129.434 63.1544 129.245 62.2088 128.875 61.3288C128.505 60.4488 127.961 59.6524 127.277 58.9869C126.592 58.3214 125.781 57.8004 124.891 57.4551C124.001 57.1098 123.05 56.9472 122.096 56.977C113.655 56.977 105.213 56.9814 96.771 56.99C83.6377 56.99 70.5043 56.9847 57.371 56.9741C46.583 56.9741 35.795 56.9741 25.007 56.9741C23.3918 56.8887 21.7723 56.9322 20.164 57.1041C18.4631 57.3546 16.9152 58.2261 15.8189 59.5505C14.7226 60.8748 14.1555 62.5583 14.227 64.2761C14.2237 74.7907 14.2237 85.3056 14.227 95.821C14.227 107.149 14.227 118.477 14.227 129.806C14.191 130.779 14.3566 131.749 14.7136 132.654C15.0705 133.56 15.611 134.382 16.3011 135.069C16.9912 135.755 17.8159 136.292 18.7233 136.644C19.6308 136.997 20.6013 137.158 21.574 137.117H121.894C122.902 137.174 123.91 137.017 124.853 136.657C125.796 136.296 126.652 135.74 127.365 135.026C128.078 134.311 128.632 133.454 128.99 132.51C129.349 131.567 129.503 130.558 129.444 129.55C129.452 122.376 129.452 115.202 129.444 108.027V107.15H119.685C104.043 107.15 88.4007 107.148 72.758 107.145C71.8685 107.156 70.9792 107.112 70.095 107.015C68.5376 106.822 67.0476 106.265 65.7455 105.389C64.4435 104.513 63.3662 103.342 62.6007 101.972C61.8353 100.602 61.4034 99.0714 61.3398 97.5033C61.2763 95.9353 61.5829 94.3744 62.235 92.9469C63.0151 91.0905 64.3491 89.5202 66.0549 88.4501C67.7607 87.38 69.7551 86.8625 71.766 86.9681C83.366 86.9421 94.966 86.958 106.56 86.96C108.717 86.96 110.873 86.971 113.029 86.971C118.394 86.971 123.761 86.9654 129.129 86.954C129.218 86.9445 129.306 86.9263 129.391 86.9H129.392ZM99.731 23.7701C99.681 24.0801 99.654 24.316 99.605 24.547C97.9763 32.1757 96.3467 39.8041 94.716 47.4321C94.6498 47.5903 94.6233 47.7622 94.6388 47.933C94.6542 48.1038 94.7111 48.2682 94.8045 48.412C94.8979 48.5558 95.0251 48.6746 95.1749 48.7581C95.3246 48.8416 95.4926 48.8872 95.664 48.891C99.7973 49.767 103.929 50.6417 108.058 51.5151C109.574 51.8371 111.086 52.1721 112.597 52.5001C112.462 53.2241 112.345 53.8461 112.223 54.5001H114.703C116.025 48.2641 117.331 42.081 118.648 35.9C119.477 32.0086 120.313 28.1184 121.156 24.2291C121.356 23.3001 121.109 22.883 120.232 22.697L104.992 19.459C94.7567 17.2817 84.5234 15.1033 74.292 12.924C73.263 12.705 72.915 12.9031 72.692 13.9321C71.0527 21.5321 69.4194 29.132 67.792 36.732C67.051 40.201 66.348 43.677 65.623 47.148C65.245 48.955 64.857 50.759 64.464 52.611L67.102 53.176C67.184 52.882 67.261 52.656 67.309 52.425C67.54 51.32 67.756 50.21 67.993 49.106C68.166 48.306 68.573 47.982 69.299 48.137C73.746 49.08 78.189 50.043 82.633 50.996C82.7822 51.0118 82.9259 51.0614 83.0531 51.141C83.1802 51.2207 83.2876 51.3283 83.3669 51.4556C83.4463 51.583 83.4955 51.7268 83.511 51.876C83.5264 52.0253 83.5076 52.1762 83.456 52.3171C83.316 53.0441 83.14 53.7641 82.969 54.5361H109.638C109.53 54.412 109.384 54.3274 109.222 54.296C103.8 53.1466 98.3773 51.9994 92.954 50.8541C91.793 50.6091 91.56 50.254 91.804 49.115C92.171 47.406 92.479 45.6821 92.912 43.9891C93.22 42.7891 92.705 42.477 91.824 42.289C85.928 41.0437 80.033 39.793 74.139 38.537C72.939 38.282 71.748 38.009 70.514 37.737L71.079 35.32C78.348 36.872 85.502 38.401 92.656 39.925C93.386 40.08 93.805 39.7951 93.975 39.0051C94.648 35.8751 95.307 32.743 95.975 29.612C96.422 27.512 96.875 25.422 97.336 23.271L99.731 23.7701ZM100.307 104.67V104.683H105.322C113.331 104.68 121.34 104.68 129.349 104.683C129.793 104.714 130.239 104.651 130.657 104.497C131.075 104.343 131.456 104.102 131.774 103.79C132.092 103.478 132.341 103.102 132.503 102.687C132.665 102.273 132.737 101.828 132.715 101.383C132.723 98.606 132.633 95.824 132.742 93.051C132.785 92.5541 132.718 92.0539 132.546 91.5859C132.373 91.1179 132.1 90.6936 131.745 90.3433C131.39 89.9931 130.962 89.7255 130.492 89.5595C130.021 89.3935 129.52 89.3332 129.024 89.383C121.724 89.424 114.416 89.399 107.112 89.399C95.4887 89.399 83.8657 89.401 72.243 89.405C71.5433 89.4066 70.8445 89.4541 70.151 89.547C68.2451 89.868 66.5324 90.9012 65.3598 92.4375C64.1871 93.9739 63.6421 95.8984 63.8352 97.8215C64.0283 99.7445 64.9451 101.522 66.3997 102.795C67.8544 104.067 69.7384 104.739 71.67 104.675C81.2153 104.68 90.7597 104.68 100.303 104.675L100.307 104.67ZM44.5 54.5571H46.483C48.515 54.5571 50.698 54.57 52.883 54.539C53.0343 54.5301 53.1822 54.4912 53.3182 54.4244C53.4542 54.3576 53.5755 54.2643 53.675 54.15C54.6428 52.898 55.3425 51.4603 55.7306 49.9262C56.1187 48.3921 56.187 46.7945 55.931 45.233C55.6702 43.4078 54.9987 41.6656 53.967 40.1375C52.9353 38.6094 51.5703 37.3353 49.9749 36.4112C48.3795 35.4871 46.5952 34.937 44.7563 34.8024C42.9175 34.6678 41.0721 34.9522 39.3591 35.6341C37.6461 36.316 36.1102 37.3777 34.8669 38.7392C33.6237 40.1007 32.7056 41.7266 32.1818 43.4943C31.6579 45.2621 31.542 47.1257 31.8428 48.9448C32.1435 50.7638 32.8531 52.4909 33.918 53.996C34.0463 54.1497 34.2041 54.276 34.382 54.3677C34.5599 54.4594 34.7544 54.5146 34.954 54.53C37.461 54.575 39.969 54.552 42.476 54.551H43.403L44.5 54.5571ZM80.687 53.113L70.164 50.888C69.956 51.868 69.764 52.7541 69.582 53.6351C73.1126 54.5738 76.7862 54.8523 80.418 54.457C80.503 54.057 80.587 53.64 80.691 53.118L80.687 53.113Z" fill="#23224E"/>
<path d="M90.398 19.691C90.156 20.85 89.903 22.091 89.639 23.323C88.9483 26.5543 88.2543 29.7853 87.557 33.016C87.357 33.925 86.981 34.166 86.05 33.967C81.82 33.067 77.5904 32.167 73.361 31.267C72.123 31.002 71.922 30.709 72.182 29.493C73.0853 25.261 73.993 21.03 74.905 16.8C75.117 15.818 75.479 15.6 76.454 15.812C80.6833 16.7153 84.9133 17.6154 89.144 18.5121C89.772 18.6421 90.382 18.785 90.398 19.691ZM87.403 21.746C87.435 21.5994 87.4347 21.4478 87.4021 21.3014C87.3695 21.155 87.3053 21.0174 87.2141 20.8983C87.123 20.7792 87.0069 20.6815 86.8741 20.6118C86.7412 20.5422 86.5948 20.5023 86.445 20.495C83.707 19.927 80.971 19.347 78.234 18.772C77.381 18.592 77.042 18.7931 76.857 19.6381C76.2664 22.3454 75.6844 25.054 75.111 27.764C74.904 28.746 75.139 29.097 76.125 29.31C78.833 29.8967 81.5424 30.477 84.253 31.051C84.3999 31.1065 84.5578 31.1267 84.7139 31.1099C84.8701 31.093 85.02 31.0396 85.1517 30.954C85.2833 30.8684 85.393 30.753 85.4717 30.6172C85.5505 30.4813 85.5962 30.3288 85.605 30.172C85.805 29.281 85.994 28.3861 86.183 27.4921C86.599 25.5461 87.011 23.599 87.404 21.751L87.403 21.746Z" fill="#23224E"/>
<path d="M114.232 39.988L108.737 38.82C106.266 38.2947 103.795 37.7683 101.325 37.241C100.232 37.009 99.985 36.6259 100.219 35.5359C101.122 31.3313 102.022 27.1266 102.919 22.9219C103.166 21.7629 103.432 21.589 104.588 21.832C108.822 22.724 113.055 23.6137 117.288 24.501C118.316 24.716 118.559 25.0719 118.342 26.0769C117.531 29.8283 116.718 33.5793 115.904 37.33C115.774 37.93 115.704 38.55 115.557 39.147C115.536 39.2947 115.483 39.436 115.402 39.5613C115.321 39.6866 115.214 39.7929 115.088 39.8728C114.962 39.9528 114.821 40.0045 114.673 40.0243C114.525 40.0442 114.375 40.0318 114.232 39.988ZM115.513 27.496C115.473 26.82 115.004 26.5629 114.405 26.4369C111.776 25.8869 109.148 25.3366 106.519 24.7859C105.372 24.5469 105.089 24.723 104.844 25.87C104.288 28.47 103.75 31.0759 103.193 33.6769C102.962 34.7579 103.152 35.077 104.25 35.309C106.85 35.8603 109.452 36.4073 112.057 36.95C113.187 37.186 113.502 36.984 113.739 35.873C114.025 34.533 114.297 33.1899 114.581 31.8479C114.887 30.4039 115.199 28.959 115.516 27.496H115.513Z" fill="#23224E"/>
<path d="M98.586 42.959L99.11 40.5141L114.46 43.799C114.294 44.606 114.139 45.359 113.96 46.23L98.586 42.959Z" fill="#23224E"/>
<path d="M69.114 44.384L69.638 41.97L80.42 44.251C80.245 45.068 80.08 45.839 79.894 46.703L69.114 44.384Z" fill="#23224E"/>
<path d="M92.425 32.325L89.984 31.818L92.05 22.146L94.493 22.664C93.797 25.91 93.12 29.073 92.425 32.325Z" fill="#23224E"/>
<path d="M71.969 103C70.7891 103 69.6357 102.649 68.655 101.993C67.6743 101.337 66.9103 100.405 66.4598 99.3145C66.0092 98.2239 65.8924 97.0243 66.1241 95.8673C66.3558 94.7104 66.9256 93.6481 67.7614 92.8152C68.5971 91.9823 69.6612 91.4161 70.819 91.1882C71.9767 90.9604 73.176 91.0812 74.265 91.5354C75.354 91.9896 76.2838 92.7567 76.9365 93.7396C77.5893 94.7226 77.9358 95.8771 77.932 97.057C77.9343 97.8398 77.7814 98.6153 77.4823 99.3386C77.1832 100.062 76.7438 100.719 76.1893 101.271C75.6349 101.824 74.9765 102.261 74.2521 102.558C73.5277 102.855 72.7518 103.005 71.969 103ZM72.002 100.567C72.934 100.554 73.8225 100.171 74.4722 99.5025C75.1218 98.8341 75.4793 97.935 75.466 97.0031C75.4528 96.0711 75.0698 95.1825 74.4015 94.5328C73.7331 93.8832 72.834 93.5258 71.902 93.5391C70.9701 93.5523 70.0815 93.9353 69.4319 94.6036C68.7823 95.272 68.4248 96.1711 68.438 97.103C68.4513 98.035 68.8342 98.9235 69.5026 99.5731C70.171 100.223 71.07 100.58 72.002 100.567Z" fill="#23224E"/>
<path d="M79.363 26.095L80.009 23.0041L83.088 23.685C82.871 24.732 82.667 25.715 82.448 26.765L79.363 26.095Z" fill="#23224E"/>
<path d="M111.16 29.66L110.489 32.742L107.416 32.087C107.629 31.063 107.835 30.078 108.061 28.993L111.16 29.66Z" fill="#23224E"/>
<path d="M53.645 2.36205C56.0472 2.36205 58.3955 3.07431 60.3929 4.40893C62.3903 5.74355 63.9471 7.64058 64.8664 9.85998C65.7858 12.0794 66.0263 14.5215 65.5576 16.8776C65.089 19.2336 63.9322 21.3979 62.2335 23.0965C60.5349 24.7952 58.3706 25.952 56.0146 26.4206C53.6585 26.8893 51.2163 26.6488 48.9969 25.7295C46.7775 24.8102 44.8806 23.2534 43.546 21.256C42.2113 19.2586 41.499 16.9103 41.499 14.508C41.5027 11.2879 42.7836 8.20059 45.0606 5.92357C47.3376 3.64656 50.4248 2.36576 53.645 2.36205ZM53.645 -9.53674e-06C50.7756 -9.53674e-06 47.9706 0.850899 45.5848 2.44506C43.1989 4.03922 41.3394 6.30505 40.2414 8.95605C39.1433 11.607 38.856 14.5241 39.4158 17.3384C39.9756 20.1526 41.3573 22.7377 43.3863 24.7667C45.4153 26.7957 48.0004 28.1774 50.8146 28.7372C53.6289 29.297 56.546 29.0097 59.197 27.9116C61.8479 26.8135 64.1138 24.9541 65.708 22.5682C67.3021 20.1824 68.153 17.3775 68.153 14.508C68.153 10.6603 66.6245 6.97004 63.9037 4.24926C61.1829 1.52848 57.4927 -9.53674e-06 53.645 -9.53674e-06Z" fill="#23224E"/>
<path d="M49.381 18.768L50.147 17.153L48.185 16.2231L48.929 15.152C49.078 15.222 49.229 15.2939 49.374 15.3629C49.4914 15.4223 49.6127 15.4738 49.737 15.517C49.814 15.5401 49.8966 15.5356 49.9707 15.5044C50.0448 15.4732 50.1057 15.4172 50.143 15.346C50.1624 15.3136 50.1801 15.2802 50.196 15.246C50.853 13.859 51.508 12.471 52.172 11.085C52.2462 10.9577 52.2668 10.8061 52.2293 10.6636C52.1918 10.5211 52.0992 10.3993 51.972 10.325C51.949 10.3122 51.9253 10.3009 51.901 10.291C51.663 10.17 51.419 10.062 51.17 9.944L51.662 8.90702L53.615 9.83304L54.369 8.24295L55.335 8.69999L54.6 10.251L55.378 10.62L56.114 9.069L57.09 9.53202L56.336 11.12C56.455 11.196 56.572 11.2671 56.685 11.3431C57.114 11.6024 57.4823 11.9509 57.765 12.365C57.9047 12.5789 57.9923 12.8226 58.021 13.0765C58.0496 13.3303 58.0185 13.5873 57.93 13.8269C57.8343 14.1421 57.6662 14.4305 57.439 14.669C57.1565 14.9444 56.7822 15.1057 56.388 15.122H56.325C56.452 15.249 56.583 15.3681 56.697 15.4991C56.9139 15.7324 57.0579 16.024 57.1112 16.3382C57.1645 16.6523 57.1248 16.9751 56.997 17.267C56.8424 17.6931 56.5939 18.079 56.27 18.396C55.9177 18.7322 55.4519 18.9236 54.965 18.932C54.5455 18.9417 54.1274 18.8794 53.729 18.748C53.442 18.659 53.157 18.558 52.867 18.459C52.8573 18.472 52.8486 18.4857 52.841 18.5L52.123 20.014C52.1166 20.0286 52.1113 20.0436 52.107 20.059L51.122 19.592L51.875 18.0039L51.1 17.636L50.346 19.224L49.381 18.768ZM51.691 16.4681C51.714 16.4791 51.729 16.4911 51.746 16.4991C52.105 16.6591 52.462 16.825 52.824 16.979C53.1329 17.1125 53.4609 17.1965 53.796 17.2279C54.0617 17.266 54.3326 17.2159 54.567 17.085C54.6746 17.0154 54.7674 16.9253 54.8402 16.8199C54.913 16.7144 54.9642 16.5957 54.9911 16.4704C55.0179 16.3451 55.0198 16.2158 54.9966 16.0898C54.9735 15.9637 54.9257 15.8435 54.856 15.736L54.84 15.711C54.5884 15.372 54.2596 15.0978 53.881 14.911C53.526 14.717 53.156 14.552 52.793 14.375C52.764 14.361 52.734 14.351 52.703 14.338L51.691 16.4681ZM53.162 13.368C53.473 13.504 53.777 13.643 54.085 13.768C54.36 13.8852 54.6527 13.9552 54.951 13.975C55.0705 13.9906 55.1919 13.9825 55.3083 13.9511C55.4247 13.9197 55.5337 13.8657 55.6292 13.7921C55.7247 13.7186 55.8047 13.6269 55.8647 13.5224C55.9247 13.4179 55.9636 13.3026 55.979 13.183V13.1599C55.9966 13.0111 55.9786 12.8603 55.9265 12.7198C55.8743 12.5793 55.7895 12.4532 55.679 12.352C55.5016 12.1637 55.2928 12.0078 55.062 11.891C54.741 11.727 54.413 11.58 54.084 11.423L53.162 13.368Z" fill="#23224E"/>
<path d="M14.508 9.11005C16.9102 9.11005 19.2585 9.82231 21.2559 11.1569C23.2533 12.4915 24.8102 14.3886 25.7295 16.608C26.6488 18.8274 26.8893 21.2695 26.4206 23.6256C25.952 25.9816 24.7952 28.1459 23.0965 29.8445C21.3979 31.5432 19.2337 32.7 16.8776 33.1686C14.5215 33.6373 12.0793 33.3968 9.85993 32.4775C7.64054 31.5582 5.7436 30.0014 4.40898 28.004C3.07436 26.0066 2.36201 23.6583 2.36201 21.256C2.36571 18.0359 3.64656 14.9486 5.92358 12.6716C8.20059 10.3946 11.2878 9.11376 14.508 9.11005ZM14.508 6.74799C11.6386 6.74799 8.83362 7.5989 6.44779 9.19306C4.06197 10.7872 2.20244 13.0531 1.10436 15.704C0.00628865 18.355 -0.281022 21.2721 0.278773 24.0864C0.838567 26.9006 2.22031 29.4857 4.24929 31.5147C6.27827 33.5437 8.86336 34.9254 11.6776 35.4852C14.4919 36.045 17.409 35.7577 20.06 34.6596C22.711 33.5615 24.9768 31.7021 26.571 29.3162C28.1651 26.9304 29.016 24.1255 29.016 21.256C29.016 17.4083 27.4875 13.718 24.7667 10.9973C22.0459 8.27648 18.3558 6.74799 14.508 6.74799Z" fill="#23224E"/>
<path d="M8.48602 14.721L16.857 17.71C16.798 17.734 16.767 17.751 16.734 17.76L12.151 19.0481C12.1155 19.0653 12.075 19.0691 12.0368 19.059C11.9986 19.049 11.9654 19.0255 11.943 18.993C10.8017 17.593 9.65867 16.1976 8.51401 14.807C8.49815 14.7888 8.48378 14.7694 8.47101 14.749L8.48602 14.721Z" fill="#23224E"/>
<path d="M9.513 23.657L8.19901 14.957L8.229 14.9439L8.30103 15.032L11.691 19.167C11.746 19.234 11.78 19.286 11.73 19.378C11.0107 20.778 10.2944 22.1816 9.58102 23.589C9.57002 23.611 9.55701 23.632 9.54501 23.653L9.513 23.657Z" fill="#23224E"/>
<path d="M15.294 23.072L12.238 19.344L17.189 17.953L15.294 23.072Z" fill="#23224E"/>
<path d="M15.041 23.2721L9.66101 24.122L11.99 19.55L15.041 23.2721Z" fill="#23224E"/>
<path d="M18.334 26.785L18.26 26.695L15.993 23.9299C15.9661 23.9051 15.9474 23.8727 15.9396 23.8369C15.9317 23.8012 15.935 23.7638 15.949 23.73C16.549 22.114 17.149 20.497 17.749 18.879C17.7587 18.8544 17.7778 18.8346 17.802 18.824L18.371 26.7691L18.334 26.785Z" fill="#23224E"/>
<path d="M18.115 27.022L10.351 24.885C10.434 24.865 10.475 24.8529 10.515 24.8469L15.537 24.047C15.613 24.035 15.674 24.023 15.737 24.101C16.5057 25.0456 17.277 25.988 18.051 26.928C18.0749 26.9575 18.0963 26.9889 18.115 27.022Z" fill="#23224E"/>
<path d="M56.487 86.0009H86.226C87.3527 86.0009 88.4331 86.4485 89.2298 87.2452C90.0265 88.0418 90.474 89.1223 90.474 90.249V105.12C90.474 106.247 90.0265 107.327 89.2298 108.124C88.4331 108.92 87.3527 109.368 86.226 109.368H56.487C55.3599 109.368 54.2791 108.92 53.4821 108.123C52.6851 107.326 52.2373 106.245 52.237 105.118V90.249C52.2373 89.122 52.6851 88.0413 53.4821 87.2445C54.2791 86.4476 55.36 86 56.487 86V86.0009Z" fill="white" stroke="#23224E" stroke-width="3" stroke-miterlimit="10"/>
<path d="M60.734 86.001V77.501C60.734 74.6837 61.8531 71.9818 63.8452 69.9897C65.8374 67.9976 68.5392 66.8785 71.3565 66.8785C74.1738 66.8785 76.8756 67.9976 78.8677 69.9897C80.8598 71.9818 81.979 74.6837 81.979 77.501V86.001" fill="white"/>
<path d="M60.734 86.001V77.501C60.734 74.6837 61.8531 71.9818 63.8452 69.9897C65.8374 67.9976 68.5392 66.8785 71.3565 66.8785C74.1738 66.8785 76.8756 67.9976 78.8677 69.9897C80.8598 71.9818 81.979 74.6837 81.979 77.501V86.001" stroke="#23224E" stroke-width="3" stroke-miterlimit="10"/>
<path d="M72.255 101.983C74.6773 101.983 76.641 100.019 76.641 97.597C76.641 95.1747 74.6773 93.211 72.255 93.211C69.8327 93.211 67.869 95.1747 67.869 97.597C67.869 100.019 69.8327 101.983 72.255 101.983Z" fill="white" stroke="#23224E" stroke-width="2.6" stroke-miterlimit="10"/>
<path d="M47.4813 45.6548C47.2848 45.5829 47.104 45.4716 46.9499 45.3276C46.7959 45.1835 46.6717 45.0098 46.585 44.8169C46.4929 44.6265 46.4395 44.4199 46.4281 44.2094C46.4167 43.9989 46.4475 43.7889 46.5185 43.5921C46.58 43.3897 46.6834 43.2035 46.8219 43.0459C46.9605 42.8883 47.1309 42.7629 47.322 42.678C47.5089 42.5894 47.712 42.5395 47.9193 42.5313C48.1267 42.523 48.3342 42.5567 48.53 42.6301C48.7257 42.7036 48.9057 42.8155 49.0596 42.9594C49.2135 43.1032 49.3382 43.2761 49.4264 43.4681C49.5169 43.659 49.5694 43.8656 49.5808 44.076C49.5923 44.2863 49.5625 44.4962 49.4931 44.6935C49.4237 44.8907 49.3162 45.0714 49.1767 45.2251C49.0373 45.3788 48.8686 45.5023 48.6806 45.5887C48.5001 45.6908 48.2984 45.7497 48.0907 45.7612C47.883 45.7726 47.6747 45.7363 47.4813 45.6548ZM48.4141 45.0177C48.6425 44.9085 48.819 44.7135 48.907 44.4734C48.9494 44.3536 48.9677 44.2262 48.9609 44.0984C48.954 43.9706 48.9222 43.8451 48.8673 43.7291C48.8135 43.6126 48.7376 43.5077 48.6441 43.4204C48.5506 43.3332 48.4413 43.2652 48.3224 43.2206C48.2035 43.176 48.0775 43.1555 47.9516 43.1604C47.8256 43.1652 47.7023 43.1953 47.5887 43.249C47.3603 43.3581 47.1838 43.553 47.0957 43.7931C47.0534 43.9129 47.0351 44.0403 47.042 44.1681C47.0488 44.2959 47.0806 44.4214 47.1356 44.5374C47.1876 44.655 47.2629 44.7609 47.3566 44.8484C47.4504 44.9359 47.5606 45.0031 47.6805 45.0459C47.7987 45.0935 47.9251 45.1155 48.0515 45.1107C48.1779 45.1058 48.3014 45.0741 48.4141 45.0177Z" fill="#D5DA43"/>
<path d="M50.133 42.0167C50.1138 41.5993 50.3247 41.2989 50.7399 41.1051L51.041 41.7501C50.8203 41.829 50.6364 41.9866 50.5231 42.1938C50.4715 42.3077 50.4474 42.4329 50.4528 42.5591C50.4582 42.6852 50.4931 42.8088 50.5544 42.9196L51.2079 44.3196L50.6126 44.5974L49.3227 41.834L49.918 41.5561L50.133 42.0167Z" fill="#D5DA43"/>
<path d="M37.5462 46.7251L35.941 47.4743L36.4483 48.5611L37.9993 47.8371L38.2917 48.4635L36.7407 49.1875L37.4801 50.7717L36.8486 51.0665L35.0257 47.1612L37.2624 46.1171L37.5462 46.7251Z" fill="#23224E"/>
<path d="M38.1148 46.4374C38.0125 46.3989 37.9287 46.321 37.882 46.2209C37.8352 46.1207 37.8293 46.0065 37.8655 45.9032C37.9053 45.7982 37.9837 45.7134 38.0845 45.6664C38.1852 45.6193 38.3006 45.6137 38.4067 45.6506C38.509 45.6892 38.5928 45.7671 38.6396 45.8672C38.6863 45.9674 38.6922 46.0816 38.656 46.1849C38.6162 46.2899 38.5378 46.3747 38.437 46.4217C38.3363 46.4687 38.2209 46.4744 38.1148 46.4374Z" fill="#23224E"/>
<path d="M45.686 45.5733C45.5836 45.5348 45.4998 45.4569 45.4531 45.3567C45.4063 45.2566 45.4004 45.1424 45.4366 45.0391C45.4764 44.9341 45.5548 44.8493 45.6556 44.8022C45.7563 44.7552 45.8717 44.7496 45.9778 44.7865C46.0802 44.8251 46.1639 44.903 46.2107 45.0031C46.2574 45.1033 46.2634 45.2175 46.2271 45.3207C46.1873 45.4258 46.1089 45.5106 46.0082 45.5576C45.9074 45.6047 45.7921 45.6103 45.686 45.5733Z" fill="#D5DA43"/>
<path d="M38.3376 46.9614L38.9329 46.6836L40.2313 49.4653L39.636 49.7431L38.3376 46.9614Z" fill="#23224E"/>
<path d="M42.5966 46.2971L43.3962 48.0103L42.8012 48.288L42.0274 46.6301C41.8296 46.2065 41.4918 46.0946 41.113 46.2714C40.6981 46.4651 40.5479 46.8492 40.8059 47.4019L41.5024 48.8942L40.9072 49.1721L39.6002 46.3721L40.1955 46.0942L40.3588 46.4442C40.4101 46.0837 40.612 45.81 41.0088 45.6248C41.6221 45.3385 42.2615 45.5792 42.5966 46.2971Z" fill="#23224E"/>
<path d="M45.0677 46.602C44.9542 46.6558 44.8308 46.686 44.7048 46.6909C44.5789 46.6958 44.4528 46.6752 44.3339 46.6303C44.2161 46.5853 44.1085 46.5161 44.0178 46.4271C43.9271 46.3381 43.8553 46.2313 43.807 46.1134C43.6961 45.883 43.6755 45.6199 43.7492 45.3776C43.7895 45.2568 43.8541 45.1461 43.9389 45.0525C44.0237 44.9589 44.127 44.8843 44.2422 44.8335C44.422 44.7441 44.6273 44.7194 44.8247 44.7635L44.9885 44.1263C44.6427 44.0499 44.2836 44.0913 43.9671 44.244C43.775 44.3293 43.6024 44.4533 43.4597 44.6086C43.317 44.7638 43.2072 44.9472 43.1367 45.1476C43.0662 45.348 43.0365 45.5615 43.0494 45.7752C43.0624 45.9889 43.1176 46.1984 43.2119 46.3913C43.3928 46.7842 43.7178 47.0917 44.1167 47.2474C44.3154 47.3231 44.5265 47.3572 44.7373 47.3475C44.948 47.3379 45.1539 47.2847 45.3423 47.1913C45.659 47.0413 45.9199 46.794 46.0885 46.4839L45.4947 46.2002C45.3919 46.3717 45.2442 46.5107 45.0677 46.602Z" fill="#D5DA43"/>
</g>
<defs>
<clipPath id="clip0_1217:16821">
<rect width="135.164" height="139.567" fill="white"/>
</clipPath>
</defs>
</svg>
