<svg width="133" height="139" viewBox="0 0 133 139" fill="none" xmlns="http://www.w3.org/2000/svg">
<g clip-path="url(#clip0_1217:16702)">
<path d="M51.088 49.292H56.537C55.308 47.772 56.248 46.273 56.527 44.813C57.221 41.187 58.044 37.586 58.815 33.975C60.4663 26.249 62.1186 18.5236 63.772 10.7989C63.8146 10.5203 63.9152 10.2538 64.0673 10.0165C64.2193 9.77915 64.4195 9.57638 64.6548 9.42125C64.8901 9.26613 65.1554 9.16217 65.4334 9.11595C65.7115 9.06974 65.9961 9.08228 66.269 9.15294C75.2563 11.0736 84.244 12.9947 93.232 14.916C98.842 16.116 104.453 17.3096 110.065 18.4969C111.689 18.8429 112.248 19.69 111.896 21.35C111.245 24.417 110.566 27.477 109.913 30.543C108.622 36.6043 107.337 42.6673 106.058 48.7319C106.033 48.9219 106.02 49.1133 106.019 49.3049H110.35C111.523 49.2725 112.69 49.4804 113.779 49.9159C114.869 50.3513 115.858 51.0051 116.685 51.837C117.513 52.6689 118.161 53.6614 118.591 54.7533C119.02 55.8451 119.222 57.0134 119.183 58.186C119.183 64.886 119.19 71.593 119.17 78.296C119.151 78.5161 119.198 78.7367 119.307 78.9293C119.415 79.1219 119.578 79.2776 119.776 79.376C120.507 79.8015 121.111 80.4141 121.526 81.1507C121.942 81.8874 122.153 82.7215 122.139 83.567C122.146 86.248 122.139 88.9299 122.152 91.6109C122.186 92.5422 121.961 93.4647 121.502 94.2757C121.043 95.0868 120.368 95.7546 119.552 96.2049C119.444 96.2963 119.356 96.4096 119.295 96.5373C119.234 96.6651 119.2 96.8044 119.197 96.946C119.178 103.699 119.173 110.451 119.182 117.203C119.22 118.376 119.019 119.544 118.59 120.637C118.162 121.73 117.515 122.723 116.69 123.557C115.864 124.392 114.877 125.049 113.789 125.489C112.702 125.929 111.535 126.143 110.362 126.117C95.178 126.134 79.9933 126.137 64.808 126.124C49.75 126.124 34.692 126.124 19.634 126.124C17.9434 126.201 16.2678 125.776 14.8188 124.901C13.3698 124.027 12.2125 122.743 11.493 121.211C10.9161 120.077 10.6243 118.819 10.643 117.547C10.6496 106.675 10.6496 95.803 10.643 84.931C10.643 75.961 10.643 66.991 10.643 58.021C10.6028 55.9541 11.3118 53.9425 12.639 52.3575C13.9663 50.7726 15.8222 49.7213 17.864 49.3979C18.4186 49.3187 18.979 49.2876 19.539 49.3049C22.365 49.2969 25.193 49.3049 28.001 49.3049C24.754 41.8819 25.922 35.5549 32.89 30.9819C35.2111 29.5452 37.9276 28.8805 40.6498 29.0831C43.3721 29.2858 45.9602 30.3454 48.043 32.11C50.5405 34.1135 52.2158 36.9641 52.751 40.121C53.3297 43.2785 52.7385 46.5387 51.088 49.292ZM116.933 78.532C116.954 78.4668 116.969 78.3999 116.978 78.332C116.978 71.532 117.02 64.732 116.969 57.932C116.972 57.0692 116.801 56.2146 116.466 55.4192C116.132 54.6238 115.641 53.9039 115.022 53.3024C114.404 52.7008 113.67 52.23 112.866 51.918C112.061 51.6059 111.202 51.459 110.34 51.486C102.711 51.486 95.0823 51.49 87.453 51.498C75.5863 51.498 63.7167 51.493 51.844 51.483C42.0947 51.483 32.3453 51.483 22.596 51.483C21.1362 51.4061 19.6725 51.4454 18.219 51.6009C16.682 51.8274 15.2833 52.615 14.2926 53.8118C13.3019 55.0085 12.7894 56.5298 12.854 58.082C12.854 67.584 12.854 77.0866 12.854 86.59C12.854 96.8273 12.854 107.065 12.854 117.303C12.8213 118.182 12.971 119.059 13.2936 119.877C13.6162 120.696 14.1046 121.439 14.7283 122.059C15.352 122.68 16.0974 123.165 16.9175 123.483C17.7377 123.802 18.6149 123.947 19.494 123.91H110.155C111.066 123.962 111.977 123.82 112.829 123.494C113.681 123.168 114.455 122.666 115.099 122.02C115.744 121.375 116.244 120.6 116.568 119.747C116.892 118.894 117.031 117.983 116.978 117.072C116.985 110.589 116.985 104.105 116.978 97.621V96.828H108.158C94.0247 96.828 79.8883 96.828 65.749 96.828C64.945 96.8376 64.1412 96.7985 63.342 96.7109C61.9347 96.5361 60.5885 96.0324 59.4122 95.2405C58.2359 94.4485 57.2626 93.3906 56.5712 92.1526C55.8798 90.9145 55.4897 89.531 55.4325 88.1141C55.3753 86.6972 55.6526 85.2867 56.242 83.9969C56.9474 82.3199 58.1532 80.9015 59.6946 79.935C61.2361 78.9686 63.0381 78.5014 64.855 78.597C75.336 78.573 85.818 78.589 96.299 78.59C98.248 78.59 100.199 78.6 102.145 78.6C106.994 78.6 111.842 78.5949 116.691 78.5849C116.773 78.5753 116.854 78.5576 116.933 78.532ZM90.133 21.4809C90.088 21.7619 90.063 21.974 90.019 22.181C88.547 29.075 87.0743 35.9686 85.601 42.8619C85.5412 43.005 85.5172 43.1604 85.5312 43.3148C85.5451 43.4692 85.5965 43.6179 85.681 43.7479C85.7655 43.8779 85.8804 43.9853 86.0158 44.0608C86.1512 44.1363 86.303 44.1775 86.458 44.181C90.1913 44.9724 93.9247 45.7627 97.658 46.552C99.028 46.843 100.395 47.145 101.758 47.442C101.636 48.096 101.531 48.6589 101.42 49.2519H103.664C104.859 43.6169 106.039 38.029 107.229 32.443C107.978 28.9263 108.733 25.4107 109.496 21.896C109.677 21.056 109.454 20.679 108.661 20.511L94.888 17.584C85.6386 15.616 76.3893 13.6473 67.14 11.678C66.21 11.478 65.896 11.658 65.695 12.588C64.2136 19.4547 62.7366 26.3213 61.264 33.188C60.594 36.323 59.959 39.4639 59.304 42.6009C58.963 44.2339 58.612 45.865 58.256 47.538L60.64 48.0489C60.714 47.7829 60.783 47.58 60.827 47.371C61.036 46.371 61.227 45.371 61.445 44.371C61.601 43.646 61.969 43.355 62.626 43.495C66.645 44.347 70.66 45.217 74.676 46.079C74.8108 46.0933 74.9406 46.1383 75.0554 46.2103C75.1703 46.2823 75.2672 46.3796 75.3388 46.4947C75.4105 46.6098 75.4549 46.7398 75.4688 46.8746C75.4827 47.0095 75.4656 47.1456 75.419 47.2729C75.292 47.9299 75.134 48.5809 74.979 49.2789H99.079C98.9814 49.1666 98.849 49.0903 98.703 49.062C93.803 48.0233 88.903 46.9862 84.003 45.9509C82.954 45.7299 82.743 45.407 82.963 44.38C83.295 42.835 83.573 41.28 83.963 39.748C84.241 38.664 83.776 38.381 82.979 38.213C77.6503 37.0877 72.323 35.9573 66.997 34.822C65.915 34.592 64.836 34.345 63.721 34.099L64.232 31.915C70.801 33.315 77.266 34.699 83.732 36.077C84.392 36.217 84.77 35.959 84.924 35.245C85.532 32.417 86.124 29.586 86.732 26.756C87.132 24.862 87.545 22.969 87.962 21.026L90.133 21.4809ZM90.654 94.5959V94.608H95.186C102.424 94.608 109.662 94.608 116.9 94.608C117.302 94.6361 117.705 94.5787 118.083 94.4394C118.461 94.3002 118.805 94.0823 119.092 93.8003C119.38 93.5182 119.604 93.1785 119.751 92.8033C119.897 92.4282 119.962 92.0262 119.942 91.624C119.949 89.114 119.868 86.6 119.966 84.094C120.005 83.645 119.944 83.1929 119.788 82.77C119.633 82.3471 119.386 81.9637 119.065 81.6472C118.744 81.3307 118.357 81.0888 117.932 80.9387C117.507 80.7886 117.054 80.734 116.606 80.7789C110.006 80.8159 103.406 80.7939 96.806 80.7939C86.302 80.7939 75.798 80.796 65.294 80.8C64.6615 80.8015 64.0299 80.8441 63.403 80.928C61.6784 81.2156 60.1278 82.1486 59.0659 83.5376C58.0041 84.9266 57.5104 86.6674 57.6851 88.4071C57.8598 90.1467 58.6898 91.7548 60.0067 92.9049C61.3235 94.055 63.0286 94.661 64.776 94.6C73.398 94.6006 82.0223 94.5993 90.649 94.5959H90.654ZM40.4353 49.308H42.012C43.849 49.308 45.821 49.32 47.793 49.292C47.9297 49.284 48.0636 49.2487 48.1865 49.1882C48.3095 49.1278 48.4191 49.0434 48.509 48.9399C49.3836 47.8084 50.0161 46.509 50.3669 45.1225C50.7176 43.7361 50.7793 42.2923 50.548 40.881C50.3123 39.2314 49.7054 37.6569 48.7729 36.2759C47.8405 34.8949 46.6069 33.7435 45.165 32.9083C43.7231 32.0732 42.1105 31.5761 40.4487 31.4545C38.7868 31.3328 37.119 31.5898 35.5709 32.2062C34.0228 32.8225 32.6347 33.782 31.5111 35.0126C30.3876 36.2431 29.5579 37.7124 29.0845 39.31C28.6112 40.9077 28.5065 42.592 28.7783 44.236C29.0502 45.8799 29.6915 47.4408 30.654 48.801C30.7701 48.9399 30.9128 49.054 31.0737 49.1368C31.2346 49.2196 31.4105 49.2692 31.591 49.2829C33.856 49.3229 36.123 49.303 38.391 49.302H39.235L40.4353 49.308ZM72.929 48.0019L63.42 45.991C63.232 46.876 63.062 47.678 62.894 48.473C66.0847 49.3215 69.4047 49.5733 72.687 49.2159C72.752 48.8519 72.828 48.4739 72.922 48.0029L72.929 48.0019Z" fill="#23224E"/>
<path d="M43.4813 41.6549C43.2848 41.5829 43.104 41.4716 42.9499 41.3276C42.7959 41.1835 42.6717 41.0098 42.585 40.8169C42.4929 40.6265 42.4396 40.4199 42.4281 40.2094C42.4167 39.9989 42.4475 39.7889 42.5185 39.5921C42.58 39.3897 42.6834 39.2035 42.822 39.0459C42.9605 38.8883 43.1309 38.7629 43.322 38.678C43.509 38.5894 43.712 38.5395 43.9193 38.5313C44.1267 38.523 44.3342 38.5567 44.53 38.6301C44.7257 38.7036 44.9057 38.8156 45.0596 38.9594C45.2135 39.1032 45.3382 39.2761 45.4264 39.4681C45.5169 39.659 45.5694 39.8656 45.5808 40.076C45.5923 40.2863 45.5625 40.4962 45.4931 40.6935C45.4237 40.8907 45.3162 41.0714 45.1767 41.2251C45.0373 41.3788 44.8687 41.5024 44.6807 41.5887C44.5001 41.6908 44.2984 41.7497 44.0907 41.7612C43.883 41.7726 43.6747 41.7363 43.4813 41.6549ZM44.4141 41.0177C44.6425 40.9085 44.819 40.7135 44.9071 40.4734C44.9494 40.3537 44.9677 40.2262 44.9609 40.0984C44.954 39.9706 44.9222 39.8451 44.8673 39.7291C44.8135 39.6126 44.7377 39.5077 44.6441 39.4204C44.5506 39.3332 44.4413 39.2652 44.3224 39.2206C44.2035 39.176 44.0775 39.1555 43.9516 39.1604C43.8256 39.1652 43.7023 39.1953 43.5887 39.249C43.3603 39.3581 43.1838 39.553 43.0957 39.7931C43.0534 39.9129 43.0351 40.0403 43.042 40.1681C43.0488 40.2959 43.0806 40.4214 43.1356 40.5374C43.1876 40.655 43.2629 40.7609 43.3566 40.8484C43.4504 40.9359 43.5606 41.0031 43.6805 41.0459C43.7987 41.0935 43.9251 41.1155 44.0515 41.1107C44.1779 41.1058 44.3014 41.0741 44.4141 41.0177Z" fill="#D5DA43"/>
<path d="M46.133 38.0167C46.1138 37.5993 46.3247 37.2989 46.7399 37.1051L47.041 37.7501C46.8203 37.8291 46.6364 37.9866 46.5231 38.1938C46.4715 38.3077 46.4474 38.4329 46.4528 38.5591C46.4582 38.6852 46.4931 38.8088 46.5544 38.9196L47.2079 40.3196L46.6126 40.5974L45.3227 37.834L45.918 37.5561L46.133 38.0167Z" fill="#D5DA43"/>
<path d="M33.5462 42.7251L31.941 43.4743L32.4483 44.5611L33.9993 43.8371L34.2917 44.4635L32.7407 45.1875L33.4802 46.7717L32.8486 47.0665L31.0257 43.1612L33.2624 42.1171L33.5462 42.7251Z" fill="#23224E"/>
<path d="M34.1149 42.4375C34.0125 42.3989 33.9287 42.321 33.882 42.2209C33.8352 42.1207 33.8293 42.0065 33.8655 41.9033C33.9053 41.7982 33.9837 41.7134 34.0845 41.6664C34.1852 41.6193 34.3006 41.6137 34.4067 41.6507C34.5091 41.6892 34.5928 41.7671 34.6396 41.8672C34.6863 41.9674 34.6922 42.0816 34.656 42.1849C34.6162 42.2899 34.5378 42.3747 34.437 42.4217C34.3363 42.4687 34.2209 42.4744 34.1149 42.4375Z" fill="#23224E"/>
<path d="M41.686 41.5733C41.5836 41.5348 41.4999 41.4569 41.4531 41.3567C41.4064 41.2566 41.4004 41.1424 41.4367 41.0391C41.4764 40.9341 41.5549 40.8493 41.6556 40.8022C41.7564 40.7552 41.8717 40.7496 41.9778 40.7865C42.0802 40.8251 42.164 40.903 42.2107 41.0031C42.2575 41.1033 42.2634 41.2175 42.2272 41.3207C42.1874 41.4258 42.109 41.5106 42.0082 41.5576C41.9074 41.6047 41.7921 41.6103 41.686 41.5733Z" fill="#D5DA43"/>
<path d="M34.3376 42.9614L34.9328 42.6836L36.2312 45.4653L35.636 45.7431L34.3376 42.9614Z" fill="#23224E"/>
<path d="M38.5966 42.2971L39.3963 44.0103L38.8012 44.288L38.0274 42.6301C37.8296 42.2065 37.4918 42.0946 37.113 42.2714C36.6981 42.4651 36.5479 42.8492 36.8059 43.4019L37.5025 44.8943L36.9072 45.1721L35.6002 42.3721L36.1955 42.0942L36.3588 42.4442C36.4102 42.0837 36.612 41.81 37.0089 41.6248C37.6221 41.3386 38.2615 41.5792 38.5966 42.2971Z" fill="#23224E"/>
<path d="M41.0677 42.602C40.9542 42.6558 40.8308 42.686 40.7048 42.6909C40.5789 42.6958 40.4528 42.6752 40.3339 42.6303C40.2161 42.5853 40.1085 42.5161 40.0178 42.4271C39.9271 42.3381 39.8553 42.2313 39.807 42.1134C39.6961 41.883 39.6755 41.6199 39.7492 41.3776C39.7895 41.2568 39.8541 41.1461 39.9389 41.0525C40.0237 40.9589 40.127 40.8843 40.2422 40.8335C40.422 40.7441 40.6273 40.7194 40.8247 40.7635L40.9885 40.1263C40.6427 40.0499 40.2836 40.0913 39.9671 40.244C39.775 40.3293 39.6024 40.4533 39.4597 40.6086C39.317 40.7638 39.2072 40.9472 39.1367 41.1476C39.0662 41.348 39.0365 41.5615 39.0494 41.7752C39.0624 41.9889 39.1176 42.1984 39.2119 42.3913C39.3928 42.7842 39.7178 43.0917 40.1167 43.2474C40.3154 43.3231 40.5265 43.3572 40.7373 43.3476C40.948 43.3379 41.1539 43.2847 41.3423 43.1913C41.659 43.0413 41.9199 42.794 42.0885 42.4839L41.4947 42.2002C41.3919 42.3717 41.2442 42.5107 41.0677 42.602Z" fill="#D5DA43"/>
<path d="M81.6978 17.794C81.4788 18.842 81.2508 19.96 81.0118 21.076C80.3872 23.9967 79.7598 26.9167 79.1298 29.836C78.9528 30.657 78.6098 30.875 77.7678 30.696C73.9451 29.8827 70.1228 29.068 66.3008 28.252C65.1818 28.013 65.0008 27.7519 65.2358 26.6519C66.0525 22.8273 66.8728 19.0037 67.6968 15.181C67.8878 14.294 68.2148 14.1011 69.0968 14.2881C72.9188 15.1047 76.7415 15.9183 80.5648 16.729C81.1278 16.846 81.6798 16.976 81.6978 17.794ZM78.9918 19.6519C79.0207 19.5196 79.0205 19.3825 78.991 19.2502C78.9616 19.1179 78.9038 18.9937 78.8214 18.8861C78.7391 18.7784 78.6343 18.69 78.5144 18.6269C78.3944 18.5639 78.2622 18.5277 78.1268 18.521C75.6518 18.008 73.1798 17.483 70.7068 16.964C69.9358 16.802 69.6288 16.983 69.4618 17.747C68.9285 20.1937 68.4025 22.6417 67.8838 25.091C67.6968 25.978 67.9098 26.2911 68.7998 26.4911C71.2472 27.0211 73.6955 27.5454 76.1448 28.0641C76.2776 28.1151 76.4206 28.134 76.5621 28.1191C76.7035 28.1042 76.8395 28.0559 76.9587 27.9784C77.078 27.9008 77.1771 27.7961 77.2481 27.6728C77.319 27.5495 77.3597 27.4111 77.3668 27.269C77.5518 26.469 77.7178 25.655 77.8898 24.847C78.2608 23.085 78.6338 21.3249 78.9888 19.6519H78.9918Z" fill="#23224E"/>
<path d="M103.233 36.137L98.2668 35.081C96.0335 34.6063 93.8002 34.1307 91.5668 33.654C90.5788 33.445 90.3558 33.098 90.5668 32.113C91.3828 28.313 92.1968 24.513 93.0088 20.713C93.2318 19.665 93.4718 19.508 94.5178 19.728C98.3445 20.534 102.172 21.338 106 22.14C106.929 22.334 107.149 22.656 106.953 23.564C106.219 26.954 105.486 30.344 104.753 33.734C104.636 34.279 104.576 34.834 104.44 35.376C104.421 35.5107 104.373 35.6395 104.3 35.7537C104.226 35.8679 104.128 35.9647 104.013 36.0372C103.898 36.1097 103.769 36.1562 103.634 36.1734C103.499 36.1907 103.362 36.1782 103.233 36.137ZM104.39 24.848C104.353 24.237 103.93 24.0041 103.39 23.8911C101.014 23.3937 98.6381 22.8963 96.2628 22.399C95.2258 22.183 94.9708 22.342 94.7488 23.379C94.2488 25.729 93.7598 28.079 93.2568 30.434C93.0478 31.411 93.2198 31.699 94.2128 31.909C96.5635 32.407 98.9152 32.9014 101.268 33.392C102.289 33.605 102.574 33.423 102.788 32.419C103.047 31.208 103.288 29.994 103.549 28.781C103.825 27.475 104.107 26.172 104.391 24.848H104.39Z" fill="#23224E"/>
<path d="M89.0939 38.8211L89.5679 36.6121L103.44 39.5811L102.989 41.781L89.0939 38.8211Z" fill="#23224E"/>
<path d="M62.4589 40.11L62.9329 37.929L72.6769 39.9901C72.5179 40.7281 72.3699 41.425 72.2019 42.206L62.4589 40.11Z" fill="#23224E"/>
<path d="M83.5258 29.2121L81.3198 28.7541L83.1868 20.0141L85.3948 20.482C84.7658 23.415 84.1538 26.2731 83.5258 29.2121Z" fill="#23224E"/>
<path d="M65.0388 93.083C63.9724 93.0828 62.9301 92.7662 62.0438 92.1732C61.1575 91.5803 60.467 90.7375 60.0599 89.752C59.6528 88.7664 59.5473 87.6822 59.7568 86.6366C59.9662 85.591 60.4813 84.6311 61.2367 83.8784C61.992 83.1257 62.9538 82.614 64.0001 82.4082C65.0464 82.2024 66.1303 82.3118 67.1144 82.7224C68.0986 83.133 68.9387 83.8263 69.5286 84.7147C70.1184 85.6031 70.4314 86.6467 70.4278 87.713C70.4298 88.4204 70.2916 89.1211 70.0213 89.7748C69.7509 90.4284 69.3537 91.0221 68.8527 91.5214C68.3516 92.0207 67.7566 92.4157 67.102 92.6837C66.4473 92.9518 65.7461 93.0875 65.0388 93.083ZM65.0688 90.8829C65.4889 90.8819 65.9046 90.7976 66.2919 90.6348C66.6791 90.472 67.0302 90.234 67.3249 89.9346C67.6195 89.6351 67.8519 89.2802 68.0084 88.8904C68.1649 88.5005 68.2426 88.0835 68.2368 87.6635C68.2311 87.2434 68.142 86.8286 67.9749 86.4432C67.8077 86.0578 67.5658 85.7095 67.263 85.4182C66.9603 85.127 66.6028 84.8987 66.2112 84.7466C65.8196 84.5945 65.4017 84.5215 64.9818 84.532C64.1459 84.5529 63.352 84.9025 62.7723 85.505C62.1926 86.1076 61.8739 86.9144 61.8854 87.7505C61.8969 88.5865 62.2375 89.3844 62.8335 89.9708C63.4295 90.5573 64.2327 90.885 65.0688 90.8829Z" fill="#23224E"/>
<path d="M71.7219 23.5821L72.3058 20.7891L75.0889 21.4051C74.8889 22.3511 74.7079 23.239 74.5109 24.188L71.7219 23.5821Z" fill="#23224E"/>
<path d="M100.456 26.806L99.85 29.592L97.073 29L97.656 26.2L100.456 26.806Z" fill="#23224E"/>
<path d="M48.4799 2.13501C50.6509 2.13501 52.7732 2.77882 54.5783 3.98499C56.3835 5.19115 57.7905 6.90547 58.6213 8.91125C59.4521 10.917 59.6695 13.1242 59.2459 15.2535C58.8224 17.3829 57.7769 19.3387 56.2418 20.8739C54.7066 22.4091 52.7507 23.4545 50.6213 23.8781C48.492 24.3016 46.2849 24.0842 44.2792 23.2534C42.2734 22.4226 40.559 21.0156 39.3528 19.2104C38.1467 17.4053 37.5028 15.2831 37.5028 13.1121C37.506 10.2018 38.6635 7.41154 40.7214 5.35364C42.7793 3.29574 45.5696 2.13819 48.4799 2.13501ZM48.4799 0.000976562C45.8868 0.000976562 43.3519 0.769916 41.1958 2.21057C39.0397 3.65123 37.3592 5.69888 36.3669 8.0946C35.3745 10.4903 35.1149 13.1265 35.6208 15.6698C36.1267 18.2131 37.3754 20.5493 39.209 22.3829C41.0426 24.2165 43.3787 25.4652 45.922 25.9711C48.4653 26.477 51.1015 26.2173 53.4972 25.225C55.893 24.2326 57.9406 22.5522 59.3813 20.3961C60.8219 18.24 61.5909 15.7052 61.5909 13.1121C61.5909 9.63481 60.2095 6.29998 57.7507 3.84119C55.292 1.3824 51.9571 0.000976562 48.4799 0.000976562Z" fill="#23224E"/>
<path d="M44.6259 16.9611L45.3178 15.5021L43.5449 14.662L44.2179 13.694C44.3529 13.757 44.4859 13.823 44.6179 13.885C44.724 13.9385 44.8336 13.985 44.9459 14.024C45.0154 14.0449 45.09 14.0409 45.157 14.0128C45.2239 13.9847 45.279 13.9342 45.3128 13.87C45.3304 13.8405 45.3464 13.8102 45.3608 13.7791C45.9548 12.5251 46.5459 11.271 47.1469 10.019C47.1803 9.96207 47.2022 9.89897 47.2112 9.8335C47.2202 9.76802 47.2161 9.70146 47.1992 9.63757C47.1822 9.57369 47.1528 9.51375 47.1126 9.4613C47.0724 9.40886 47.0222 9.36495 46.9648 9.33203C46.9441 9.32044 46.9228 9.31008 46.9008 9.30103C46.6858 9.19203 46.4648 9.09404 46.2408 8.98804L46.6859 8.05103L48.4508 8.88806L49.1328 7.45105L50.0059 7.86401L49.3419 9.26404L50.0418 9.59705L50.7068 8.19702L51.5888 8.61499L50.9078 10.05C51.0158 10.119 51.1208 10.183 51.2228 10.25C51.6105 10.4847 51.9433 10.7998 52.1989 11.1741C52.3252 11.3675 52.4045 11.5877 52.4304 11.8173C52.4563 12.0468 52.428 12.2793 52.3478 12.496C52.2613 12.7808 52.1093 13.0415 51.9038 13.257C51.6486 13.506 51.3102 13.6518 50.9539 13.666H50.8969C51.0119 13.781 51.1299 13.888 51.2339 14.007C51.4303 14.2181 51.5606 14.4822 51.6088 14.7665C51.6569 15.0508 51.6208 15.343 51.5049 15.6071C51.3651 15.992 51.1405 16.3406 50.8478 16.6271C50.5295 16.9307 50.1087 17.1034 49.6689 17.111C49.2898 17.1197 48.912 17.0637 48.5518 16.9451C48.2918 16.8641 48.0349 16.773 47.7729 16.684C47.7643 16.6957 47.7566 16.7082 47.7498 16.7211L47.1009 18.089C47.0953 18.1023 47.0906 18.116 47.0869 18.13L46.1968 17.708L46.8778 16.2731L46.1779 15.9401L45.4969 17.376L44.6259 16.9611ZM46.7138 14.8831C46.7348 14.8931 46.7479 14.904 46.7639 14.91C47.0879 15.055 47.4109 15.204 47.7379 15.344C48.0169 15.4645 48.3132 15.5405 48.6158 15.569C48.857 15.604 49.103 15.5587 49.3159 15.4401C49.4131 15.3772 49.497 15.2957 49.5627 15.2004C49.6285 15.1051 49.6748 14.9979 49.699 14.8846C49.7232 14.7714 49.7249 14.6545 49.704 14.5406C49.683 14.4268 49.6398 14.3182 49.5768 14.2211L49.5619 14.198C49.3349 13.89 49.0377 13.6408 48.6949 13.4711C48.3739 13.2961 48.0388 13.146 47.7108 12.986C47.6848 12.974 47.6579 12.964 47.6299 12.952L46.7138 14.8831ZM48.0428 12.083C48.3238 12.206 48.5989 12.332 48.8769 12.447C49.1255 12.553 49.3902 12.6162 49.6599 12.634C49.7678 12.6482 49.8775 12.6409 49.9827 12.6127C50.0878 12.5844 50.1864 12.5357 50.2727 12.4692C50.359 12.4028 50.4313 12.32 50.4856 12.2256C50.5398 12.1312 50.5749 12.0271 50.5888 11.9191V11.8981C50.6044 11.7634 50.5877 11.6268 50.54 11.4999C50.4924 11.3729 50.4152 11.2592 50.3148 11.168C50.1547 10.9978 49.9662 10.8567 49.7578 10.751C49.4678 10.603 49.1708 10.47 48.8738 10.328L48.0428 12.083Z" fill="#23224E"/>
<path d="M13.111 8.233C15.2821 8.233 17.4043 8.87681 19.2095 10.083C21.0147 11.2891 22.4216 13.0035 23.2524 15.0092C24.0833 17.015 24.3006 19.2222 23.8771 21.3515C23.4535 23.4809 22.4081 25.4367 20.8729 26.9719C19.3378 28.5071 17.3818 29.5525 15.2525 29.976C13.1232 30.3996 10.9161 30.1822 8.91028 29.3514C6.9045 28.5206 5.19012 27.1136 3.98395 25.3084C2.77779 23.5033 2.13399 21.3811 2.13399 19.2101C2.13717 16.2997 3.29469 13.5095 5.35259 11.4516C7.41049 9.39373 10.2007 8.23618 13.111 8.233ZM13.111 6.09897C10.5179 6.09897 7.98302 6.86791 5.82693 8.30856C3.67083 9.74922 1.99036 11.7969 0.998023 14.1926C0.00568265 16.5883 -0.253961 19.2245 0.251929 21.7678C0.75782 24.3111 2.00652 26.6473 3.84013 28.4809C5.67373 30.3145 8.00988 31.5632 10.5532 32.0691C13.0965 32.575 15.7327 32.3153 18.1284 31.323C20.5241 30.3306 22.5718 28.6502 24.0124 26.4941C25.4531 24.338 26.222 21.8032 26.222 19.2101C26.222 15.7328 24.8407 12.398 22.3819 9.93918C19.9231 7.48039 16.5883 6.09897 13.111 6.09897Z" fill="#23224E"/>
<path d="M7.66992 13.304L15.2349 16.004C15.1819 16.025 15.1529 16.041 15.1229 16.049L10.9809 17.213C10.9488 17.2288 10.9121 17.2324 10.8775 17.2232C10.843 17.214 10.8129 17.1927 10.7929 17.1631C9.76157 15.9011 8.72823 14.64 7.6929 13.38C7.67851 13.3637 7.66547 13.3463 7.6539 13.328L7.66992 13.304Z" fill="#23224E"/>
<path d="M8.59691 21.38L7.4099 13.5211L7.4369 13.509L7.50191 13.5891L10.5659 17.326C10.6149 17.386 10.6469 17.433 10.6009 17.517C9.95091 18.7837 9.30359 20.0524 8.65892 21.3231C8.64892 21.3431 8.6369 21.3611 8.6259 21.3811L8.59691 21.38Z" fill="#23224E"/>
<path d="M13.8219 20.855L11.0599 17.486L15.5349 16.228L13.8219 20.855Z" fill="#23224E"/>
<path d="M13.5919 21.03L8.72992 21.798L10.8299 17.6661L13.5919 21.03Z" fill="#23224E"/>
<path d="M16.5689 24.206L16.5029 24.125L14.4549 21.625C14.4301 21.6024 14.4129 21.5726 14.4058 21.5398C14.3986 21.5071 14.4018 21.4729 14.4149 21.4421C14.9582 19.9821 15.4996 18.5207 16.0389 17.058C16.043 17.0468 16.0494 17.0366 16.0576 17.028C16.0659 17.0194 16.0759 17.0125 16.0869 17.008L16.6009 24.188L16.5689 24.206Z" fill="#23224E"/>
<path d="M16.3709 24.42L9.3549 22.489C9.4299 22.471 9.46691 22.46 9.50291 22.455L14.0409 21.7349C14.1089 21.7239 14.1649 21.713 14.2219 21.784C14.9166 22.638 15.6136 23.4896 16.3129 24.339C16.3343 24.3644 16.3537 24.3915 16.3709 24.42Z" fill="#23224E"/>
<path d="M113.168 138.814C124.114 138.814 132.987 129.941 132.987 118.995C132.987 108.049 124.114 99.176 113.168 99.176C102.222 99.176 93.349 108.049 93.349 118.995C93.349 129.941 102.222 138.814 113.168 138.814Z" fill="white"/>
<path d="M113.168 136.814C123.009 136.814 130.987 128.836 130.987 118.995C130.987 109.154 123.009 101.176 113.168 101.176C103.327 101.176 95.349 109.154 95.349 118.995C95.349 128.836 103.327 136.814 113.168 136.814Z" stroke="#23224E" stroke-width="4" stroke-miterlimit="10"/>
<path d="M119.69 122.493H114.152V128.109H111.942V122.493H106.43V120.491H111.942V114.849H114.152V120.491H119.69V122.493Z" fill="#23224E"/>
</g>
<defs>
<clipPath id="clip0_1217:16702">
<rect width="132.987" height="138.814" fill="white"/>
</clipPath>
</defs>
</svg>
