<svg xmlns="http://www.w3.org/2000/svg" width="18.41" height="18.41" viewBox="0 0 18.41 18.41">
    <defs>
        <style>
            .cls-1{fill:none;stroke:#23224e;stroke-linecap:round;stroke-linejoin:round}
        </style>
    </defs>
    <g id="Icon_feather-eye-off" data-name="Icon feather-eye-off" transform="translate(.707 .707)">
        <path id="Path_54528" data-name="Path 54528" class="cls-1" d="M14.587 16.769A7.779 7.779 0 0 1 10 18.361c-5.408 0-8.5-6.18-8.5-6.18a14.253 14.253 0 0 1 3.909-4.59m2.967-1.406A7.046 7.046 0 0 1 10 6c5.408 0 8.5 6.18 8.5 6.18a14.292 14.292 0 0 1-1.669 2.464m-5.191-.827a2.318 2.318 0 1 1-3.28-3.274" transform="translate(-1.5 -3.682)"/>
        <path id="Path_54529" data-name="Path 54529" class="cls-1" d="m1.5 1.5 17 17" transform="translate(-1.5 -1.5)"/>
    </g>
</svg>
