<svg xmlns="http://www.w3.org/2000/svg" width="11.696" height="10.791" viewBox="0 0 11.696 10.791">
    <path fill="#707070" stroke="#6c6c6c" stroke-width="0.25px" d="M1153.543 702.014a.065.065 0 0 1-.014-.024.728.728 0 0 0-.529-.541.1.1 0 0 1-.062-.071c0-.019 0-.038-.005-.057a3.364 3.364 0 0 0-.681-1.768.115.115 0 0 1-.023-.135.478.478 0 0 0-.131-.565 4.083 4.083 0 0 0-1.51-.884 4.961 4.961 0 0 0-4.212.416 4.63 4.63 0 0 0-.612.454.482.482 0 0 0-.148.6.12.12 0 0 1-.013.1 3.474 3.474 0 0 0-.706 1.86.1.1 0 0 1-.062.071.728.728 0 0 0-.529.541.067.067 0 0 1-.013.024 1.371 1.371 0 0 0-1.07 1.61v.008a1.315 1.315 0 0 0 .175.468 1.2 1.2 0 0 0 .82.586c.031.006.076.031.082.055a.722.722 0 0 0 .571.563 5.737 5.737 0 0 0 .141.663 2.489 2.489 0 0 0 1.253 1.4 3.459 3.459 0 0 0 1.479.412.18.18 0 0 1 .189.121.492.492 0 0 0 .467.306c.207.007.415.005.622 0a.543.543 0 0 0 0-1.085c-.2 0-.4-.005-.6 0a.525.525 0 0 0-.5.338c-.018.041-.025.079-.088.075a3.061 3.061 0 0 1-2.17-.959 1.875 1.875 0 0 1-.5-1.165c-.005-.076.009-.112.088-.138a.684.684 0 0 0 .48-.663v-.524-1.158-.295-.437a.72.72 0 0 0-.574-.752 3.173 3.173 0 0 1 .453-1.468 2.7 2.7 0 0 1 .186-.267.111.111 0 0 1 .1-.032.519.519 0 0 0 .529-.119 3.962 3.962 0 0 1 4.835-.147c.065.049.126.1.187.157a.485.485 0 0 0 .5.109c.047-.015.077-.02.112.026a3.13 3.13 0 0 1 .632 1.678v.047l-.027.008a2.008 2.008 0 0 0-.293.17.639.639 0 0 0-.226.335v.008a.835.835 0 0 0-.017.088v2.582a.656.656 0 0 0 .012.126.679.679 0 0 0 .464.513.148.148 0 0 1 .067.038.626.626 0 0 0 .072.013.745.745 0 0 0 .23-.006.106.106 0 0 1 0-.012.721.721 0 0 0 .571-.563c.006-.024.051-.049.082-.055a1.2 1.2 0 0 0 .82-.586 1.319 1.319 0 0 0 .175-.468v-.008c.005-.026.01-.052.013-.079a1.37 1.37 0 0 0-1.083-1.532zm-5.124 5.374c.2 0 .394-.005.591 0a.291.291 0 0 1-.008.581h-.585a.291.291 0 1 1 0-.582zm-2.8-4.456c0 .012-.007.025-.009.037a.308.308 0 0 1 .013-.037zm-.155-.754V704.583a.469.469 0 0 1-.464.491.453.453 0 0 1-.438-.333.567.567 0 0 1-.024-.16v-.1-.149c0-.106-.049-.163-.13-.157s-.126.067-.125.154v.109l-.051-.005a1.117 1.117 0 0 1-.723-.7 1.142 1.142 0 0 1-.057-.317 1.048 1.048 0 0 1 .83-1.095V703.641a.127.127 0 1 0 .254-.005v-.478-.909-.089a.48.48 0 0 1 .032-.167.46.46 0 0 1 .891.176zm6.484-2.8c-.1.112-.227.1-.367-.013a4.622 4.622 0 0 0-.489-.364 4.231 4.231 0 0 0-4.869.386.224.224 0 0 1-.336-.006.227.227 0 0 1 .022-.335c.062-.058.127-.114.193-.166a4.717 4.717 0 0 1 2.976-.945c.2.027.553.057.9.129a4.093 4.093 0 0 1 1.912.95c.141.124.161.257.062.366zm.258 3.537a.335.335 0 0 1 .009.037c.002-.01-.001-.023-.005-.035zm2.167.492a1.147 1.147 0 0 1-.057.317 1.118 1.118 0 0 1-.723.7h-.048v-.109a.244.244 0 0 0 0-.045.114.114 0 0 0-.122-.094c-.088 0-.127.055-.128.138s0 .19 0 .286a.462.462 0 0 1-.633.436.457.457 0 0 1-.29-.39.527.527 0 0 1-.006-.08v-.184-.378-1.048-.251-.378-.165a.463.463 0 0 1 .456-.476.456.456 0 0 1 .388.208.511.511 0 0 1 .046.091c0 .008.006.015.008.023a.474.474 0 0 1 .024.144v1.416c0 .033 0 .066.009.117a.084.084 0 0 0 .007.015.13.13 0 0 0 .236-.049.147.147 0 0 0 0-.017v-1.323a1.03 1.03 0 0 1 .825.951.07.07 0 0 1 0 .009 1.1 1.1 0 0 1 .013.138z" transform="translate(-1143.069 -697.559)"/>
</svg>
