<svg xmlns="http://www.w3.org/2000/svg" width="18.781" height="17.336" viewBox="0 0 18.781 17.336">
  <g id="Group_7330" data-name="Group 7330" transform="translate(0 0)">
    <g id="Icon_ionic-ios-qr-scanner" data-name="Icon ionic-ios-qr-scanner" transform="translate(0 0)">
      <path id="Path_54616" data-name="Path 54616" d="M9.063,4.5H6.409A3.035,3.035,0,0,0,3.375,7.534v2.655a.632.632,0,0,0,1.264,0v-2.7A1.838,1.838,0,0,1,6.364,5.764h2.7a.632.632,0,1,0,0-1.264Z" transform="translate(-3.375 -4.5)" fill="#d5da43"/>
      <path id="Path_54617" data-name="Path 54617" d="M26.113,4.5h-2.7a.632.632,0,1,0,0,1.264h2.7a1.838,1.838,0,0,1,1.725,1.725v2.7a.632.632,0,1,0,1.264,0v-2.7A2.992,2.992,0,0,0,26.113,4.5Z" transform="translate(-10.321 -4.5)" fill="#d5da43"/>
      <path id="Path_54618" data-name="Path 54618" d="M9.063,26.713h-2.7a1.838,1.838,0,0,1-1.725-1.725v-2.7a.632.632,0,0,0-1.264,0v2.7a2.992,2.992,0,0,0,2.989,2.989h2.7a.632.632,0,1,0,0-1.264Z" transform="translate(-3.375 -10.641)" fill="#d5da43"/>
      <path id="Path_54619" data-name="Path 54619" d="M28.47,21.656a.634.634,0,0,0-.632.632v2.7a1.838,1.838,0,0,1-1.725,1.725h-2.7a.632.632,0,1,0,0,1.264h2.655A3.037,3.037,0,0,0,29.1,24.943V22.288A.634.634,0,0,0,28.47,21.656Z" transform="translate(-10.321 -10.641)" fill="#d5da43"/>
    </g>
    <path id="Icon_metro-qrcode" data-name="Icon metro-qrcode" d="M5.817,2.577H3.22v2.6h2.6Zm.649-.649v3.9h-3.9v-3.9Zm-2.6,1.3h1.3v1.3h-1.3Zm8.44-.649h-2.6v2.6h2.6Zm.649-.649v3.9h-3.9v-3.9Zm-2.6,1.3h1.3v1.3h-1.3ZM5.817,9.069H3.22v2.6h2.6Zm.649-.649v3.9h-3.9V8.42Zm-2.6,1.3h1.3v1.3h-1.3ZM7.115,1.928h.649v.649H7.115Zm.649.649h.649v.649H7.764Zm-.649.649h.649v.649H7.115Zm.649.649h.649v.649H7.764Zm-.649.649h.649v.649H7.115Zm.649.649h.649v.649H7.764Zm-.649.649h.649v.649H7.115Zm0,1.3h.649v.649H7.115Zm.649.649h.649V8.42H7.764Zm-.649.649h.649v.649H7.115Zm.649.649h.649v.649H7.764Zm-.649.649h.649v.649H7.115Zm.649.649h.649v.649H7.764Zm-.649.649h.649v.649H7.115Zm.649.649h.649v.649H7.764Zm4.545-4.544h.649v.649h-.649Zm-9.089,0h.649v.649H3.22Zm.649-.649h.649v.649H3.869Zm-1.3,0H3.22v.649H2.571Zm2.6,0h.649v.649H5.168Zm.649.649h.649v.649H5.817Zm.649-.649h.649v.649H6.466Zm1.948.649h.649v.649H8.414Zm.649-.649h.649v.649H9.063Zm.649.649h.649v.649H9.712Zm.649-.649h.649v.649h-.649Zm.649.649h.649v.649h-.649Zm.649-.649h.649v.649H11.66Zm.649,1.948h.649v.649h-.649Zm-3.9,0h.649v.649H8.414Zm.649-.649h.649V8.42H9.063Zm.649.649h.649v.649H9.712Zm1.3,0h.649v.649h-.649Zm.649-.649h.649V8.42H11.66Zm.649,1.948h.649v.649h-.649Zm-3.9,0h.649v.649H8.414Zm.649-.649h.649v.649H9.063Zm1.3,0h.649v.649h-.649Zm.649.649h.649v.649h-.649Zm.649-.649h.649v.649H11.66Zm.649,1.948h.649v.649h-.649Zm-3.246-.649h.649v.649H9.063Zm.649.649h.649v.649H9.712Zm.649-.649h.649v.649h-.649Zm.649.649h.649v.649h-.649Zm-1.948.649h.649v.649H9.063Zm1.3,0h.649v.649h-.649Zm1.3,0h.649v.649H11.66Z" transform="translate(1.626 1.546)" fill="#d5da43"/>
  </g>
</svg>
