<svg xmlns="http://www.w3.org/2000/svg" width="12.668" height="12.668" viewBox="0 0 12.668 12.668">
    <defs>
        <style>
            .cls-1{fill:none;stroke:#6c6c6c;stroke-linecap:round;stroke-linejoin:round}
        </style>
    </defs>
    <g id="Icon_feather-settings" transform="translate(-1 -1)">
        <path id="Path_53562" d="M16.682 15.091a1.591 1.591 0 1 1-1.591-1.591 1.591 1.591 0 0 1 1.591 1.591z" class="cls-1" transform="translate(-7.757 -7.757)"/>
        <path id="Path_53563" d="M11.259 8.925a.875.875 0 0 0 .175.965l.032.032a1.061 1.061 0 1 1-1.5 1.5l-.032-.032a.882.882 0 0 0-1.5.626v.09a1.061 1.061 0 0 1-2.121 0v-.046a.918.918 0 0 0-1.538-.626l-.032.032a1.061 1.061 0 1 1-1.5-1.5l.032-.032a.882.882 0 0 0-.626-1.5h-.09a1.061 1.061 0 0 1 0-2.121h.048a.918.918 0 0 0 .626-1.538L3.2 4.746a1.061 1.061 0 1 1 1.5-1.5l.032.032a.875.875 0 0 0 .965.175h.042a.875.875 0 0 0 .53-.8v-.09a1.061 1.061 0 1 1 2.121 0v.048a.882.882 0 0 0 1.5.626l.032-.037a1.061 1.061 0 1 1 1.5 1.5l-.032.032a.875.875 0 0 0-.175.965v.042a.875.875 0 0 0 .8.53h.09a1.061 1.061 0 0 1 0 2.121h-.045a.875.875 0 0 0-.8.53z" class="cls-1" transform="translate(0 0)"/>
    </g>
</svg>
