<svg xmlns="http://www.w3.org/2000/svg" width="11.47" height="11.47" viewBox="0 0 11.47 11.47">
    <path fill="#707070" d="M5.735.563A5.735 5.735 0 1 0 11.47 6.3 5.734 5.734 0 0 0 5.735.563zm0 2.22A2.035 2.035 0 1 1 3.7 4.817a2.035 2.035 0 0 1 2.035-2.035zm0 7.955A4.431 4.431 0 0 1 2.347 9.16a2.578 2.578 0 0 1 2.278-1.383.566.566 0 0 1 .164.025 3.062 3.062 0 0 0 .946.16 3.05 3.05 0 0 0 .946-.16.566.566 0 0 1 .164-.025A2.578 2.578 0 0 1 9.123 9.16a4.431 4.431 0 0 1-3.388 1.577z" transform="translate(0 -0.563)"/>
</svg>
